<svg id="image" xmlns="http://www.w3.org/2000/svg" width="216.213" height="169.007" viewBox="0 0 216.213 169.007">
  <g id="Path_1" data-name="Path 1" transform="translate(14.635 23)" fill="none">
    <path d="M63.388,3.646C86.646-13.025,130.68-37.514,150,6.153c9.177,20.742,61.229,67.068,50,102.258S107.516,133.8,85.649,125C44,108.24,20.109,161.7,6.818,141.288-14.584,108.415,31.732,102.643-5.229,50S40.13,20.318,63.388,3.646Z" stroke="none"/>
    <path d="M 116.1891174316406 -8.428604125976562 C 103.8952865600586 -8.428604125976562 87.65145111083984 -1.442642211914062 69.2137451171875 11.77402496337891 C 58.94666290283203 19.13377380371094 42.48145294189453 20.30390167236328 26.55836486816406 21.43548583984375 C 17.0941162109375 22.10807037353516 -2.59954833984375 23.50765228271484 -4.520584106445312 27.54773712158203 C -4.537750244140625 27.5838623046875 -5.98822021484375 31.51652526855469 2.954864501953125 44.25369262695312 C 26.88032531738281 78.32965087890625 19.58045959472656 97.34773254394531 14.25033569335938 111.2341079711914 C 10.73512268066406 120.3921813964844 8.7603759765625 125.5375747680664 15.21113586425781 135.7255096435547 C 17.75065612792969 134.7288055419922 22.53582763671875 131.3987426757812 25.85453796386719 129.0892333984375 C 36.40333557128906 121.7482376098633 50.85037231445312 111.6944427490234 69.26666259765625 111.6944427490234 C 75.97132873535156 111.6944427490234 82.73920440673828 113.0497741699219 89.38236999511719 115.7228622436523 C 97.20374298095703 118.8700256347656 118.3545379638672 123.3021926879883 140.8887023925781 123.3021926879883 C 154.0768737792969 123.3021926879883 185.3087463378906 121.5549468994141 190.4733276367188 105.3709869384766 C 196.7714996337891 85.63465118408203 174.8415374755859 57.26911163330078 158.8289489746094 36.55748748779297 C 150.9103240966797 26.31507110595703 144.071533203125 17.4693603515625 140.8550720214844 10.19931793212891 C 133.4677886962891 -6.497604370117188 123.2398300170898 -8.428604125976562 116.1891174316406 -8.428604125976562 M 116.1891021728516 -18.42861938476562 C 129.56201171875 -18.42861938476562 141.9332122802734 -12.07948303222656 150 6.1533203125 C 159.1767883300781 26.89506530761719 211.2294921875 73.22169494628906 200 108.4111099243164 C 193.9335632324219 127.4212341308594 167.4242248535156 133.3021850585938 140.8887023925781 133.3021850585938 C 118.3045806884766 133.3021850585938 95.70341491699219 129.0455322265625 85.6494140625 124.9999847412109 C 79.85065460205078 122.6666717529297 74.39617156982422 121.6944351196289 69.26665496826172 121.6944351196289 C 43.61680603027344 121.6944351196289 26.09065246582031 146.006591796875 14.27384948730469 146.006591796875 C 11.47970581054688 146.006591796875 9.006210327148438 144.6484832763672 6.818374633789062 141.2880706787109 C -14.58399963378906 108.4150238037109 31.73228454589844 102.642692565918 -5.229293823242188 49.99998474121094 C -42.19091796875 -2.642723083496094 40.12986755371094 20.318359375 63.38770294189453 3.646484375 C 76.93440246582031 -6.064193725585938 97.53428649902344 -18.42861938476562 116.1891021728516 -18.42861938476562 Z" stroke="none" fill="#7600db"/>
  </g>
  <g id="Rectangle_4" data-name="Rectangle 4" transform="translate(145.607)" fill="none" stroke="#fff" stroke-width="5">
    <rect width="50" height="50" stroke="none"/>
    <rect x="2.5" y="2.5" width="45" height="45" fill="none"/>
  </g>
</svg>
